<svg id="Capa_1" data-name="Capa 1" xmlns="http://www.w3.org/2000/svg" viewBox="0 0 1080 247.53"><defs><style>.cls-1{fill:#fff;}.cls-2,.cls-3{fill:#fd5b4f;}.cls-3{fill-rule:evenodd;}</style></defs><path class="cls-1" d="M473.29,26.14A49.38,49.38,0,0,0,453.84,7q-12.3-7-28.32-7H391.29V108.92h34.23q16,0,28.32-7a50.36,50.36,0,0,0,19.45-19.29q7.15-12.28,7.15-28.16Q480.44,38.43,473.29,26.14Zm-14,43.1a37.2,37.2,0,0,1-7.78,12,35.1,35.1,0,0,1-26,10.89H409.34V16.8h16.18a35,35,0,0,1,14.31,3A34.56,34.56,0,0,1,451.5,27.7a37.09,37.09,0,0,1,7.78,12,38.58,38.58,0,0,1,2.8,14.78A38.58,38.58,0,0,1,459.28,69.24Z"/><path class="cls-1" d="M541.64,91.64a19.51,19.51,0,0,1-11.36,3.12A23.43,23.43,0,0,1,518.92,92,21.53,21.53,0,0,1,511,83.55a25.54,25.54,0,0,1-2.57-9.33h57.81q0-14-5-24.12A35.89,35.89,0,0,0,548,34.7a33.6,33.6,0,0,0-18.67-5.45,39.29,39.29,0,0,0-20.54,5.29,37.13,37.13,0,0,0-14,14.32A42.53,42.53,0,0,0,489.67,70a43.69,43.69,0,0,0,5,21.16,37.21,37.21,0,0,0,13.85,14.47,39.64,39.64,0,0,0,20.23,5.13,46.65,46.65,0,0,0,15.71-2.49,33.84,33.84,0,0,0,12-7.15,41,41,0,0,0,8.25-10.9l-16-6.84A22.3,22.3,0,0,1,541.64,91.64Zm-24.12-44a20.55,20.55,0,0,1,11.21-3,17.76,17.76,0,0,1,10.73,3.26Q544,51,546.31,57.57c.33.87.6,1.83.87,2.8H509.33a27.44,27.44,0,0,1,1.19-4A19.22,19.22,0,0,1,517.52,47.61Z"/><polygon class="cls-1" points="629.86 31.12 606.97 89.81 583.96 31.12 566.07 31.12 598.27 108.92 599.52 108.92 614.45 108.92 615.85 108.92 647.91 31.12 629.86 31.12"/><path class="cls-1" d="M702.1,91.64a19.51,19.51,0,0,1-11.36,3.12A23.39,23.39,0,0,1,679.39,92a21.48,21.48,0,0,1-7.94-8.41,25.54,25.54,0,0,1-2.57-9.33h57.8q0-14-5-24.12a35.81,35.81,0,0,0-13.22-15.4,33.6,33.6,0,0,0-18.67-5.45,39.31,39.31,0,0,0-20.54,5.29,37.13,37.13,0,0,0-14,14.32A42.64,42.64,0,0,0,650.14,70a43.69,43.69,0,0,0,5,21.16A37.21,37.21,0,0,0,669,105.65a39.67,39.67,0,0,0,20.23,5.13,46.61,46.61,0,0,0,15.71-2.49,33.84,33.84,0,0,0,12-7.15,41,41,0,0,0,8.25-10.9l-16-6.84A22.21,22.21,0,0,1,702.1,91.64ZM678,47.61a20.49,20.49,0,0,1,11.2-3,17.76,17.76,0,0,1,10.73,3.26q4.51,3.12,6.85,9.65c.33.87.6,1.83.86,2.8H669.79a27.44,27.44,0,0,1,1.19-4A19.17,19.17,0,0,1,678,47.61Z"/><path class="cls-1" d="M737.82,108.92,738,0H755.4l-.16,108.92Z"/><path class="cls-1" d="M808.5,110.78a42.31,42.31,0,0,1-21-5.13,37.92,37.92,0,0,1-14.16-14.47A42.66,42.66,0,0,1,768.21,70a43.66,43.66,0,0,1,5-21.16,36.85,36.85,0,0,1,14.16-14.32,41,41,0,0,1,20.85-5.29A40.45,40.45,0,0,1,829,34.54,36.85,36.85,0,0,1,843.2,48.86,42.64,42.64,0,0,1,848.34,70a42.67,42.67,0,0,1-5.14,21.16A38,38,0,0,1,829,105.65,40.28,40.28,0,0,1,808.5,110.78Zm0-16.8a20,20,0,0,0,10.9-3,20.68,20.68,0,0,0,7.46-8.56A26.78,26.78,0,0,0,829.66,70a26.8,26.8,0,0,0-2.8-12.45,19.3,19.3,0,0,0-7.62-8.4,21.17,21.17,0,0,0-22.09,0,20.68,20.68,0,0,0-7.63,8.4A28.05,28.05,0,0,0,786.88,70a28,28,0,0,0,2.64,12.44A20,20,0,0,0,808.5,94Z"/><path class="cls-1" d="M934.49,48.55a32.9,32.9,0,0,0-30.65-19.3,28.29,28.29,0,0,0-17,5.14,29,29,0,0,0-7.82,8.53l-.89-11.8H861.83V140h17.43V97.43a30.05,30.05,0,0,0,7.62,8.37,29,29,0,0,0,17,5,33.33,33.33,0,0,0,18.36-5,33.86,33.86,0,0,0,12.29-14.31Q939,82.31,939,70,939,57.57,934.49,48.55ZM918.15,82.93a22.71,22.71,0,0,1-7.62,8.87,20,20,0,0,1-11,3.11A18.69,18.69,0,0,1,888.9,91.8a22.51,22.51,0,0,1-7.15-8.87A31.34,31.34,0,0,1,879.26,70a31.38,31.38,0,0,1,2.49-12.92,20.89,20.89,0,0,1,7.31-8.71,18.65,18.65,0,0,1,10.58-3.11,20.25,20.25,0,0,1,11.2,3.11,20.59,20.59,0,0,1,7.47,8.71A28.5,28.5,0,0,1,921.11,70,27.26,27.26,0,0,1,918.15,82.93Z"/><path class="cls-1" d="M999.32,91.64A19.5,19.5,0,0,1,988,94.76,23.37,23.37,0,0,1,976.61,92a21.41,21.41,0,0,1-7.94-8.41,25.34,25.34,0,0,1-2.56-9.33h57.8q0-14-5-24.12a35.83,35.83,0,0,0-13.23-15.4A33.6,33.6,0,0,0,987,29.25a39.31,39.31,0,0,0-20.54,5.29,37.13,37.13,0,0,0-14,14.32A42.64,42.64,0,0,0,947.36,70a43.58,43.58,0,0,0,5,21.16,37.11,37.11,0,0,0,13.84,14.47,39.69,39.69,0,0,0,20.23,5.13,46.71,46.71,0,0,0,15.72-2.49,34,34,0,0,0,12-7.15,41.16,41.16,0,0,0,8.24-10.9l-16-6.84A22.42,22.42,0,0,1,999.32,91.64Zm-24.11-44a20.49,20.49,0,0,1,11.2-3,17.85,17.85,0,0,1,10.74,3.26c3,2.08,5.29,5.29,6.84,9.65.33.87.61,1.83.87,2.8H967a27.44,27.44,0,0,1,1.2-4A19,19,0,0,1,975.21,47.61Z"/><path class="cls-1" d="M1063.82,34.85a30.13,30.13,0,0,0-11.36,10.39V31.12H1035v77.8h17.43V67.22c0-4.78,1.29-8.61,3.89-11.52a21.5,21.5,0,0,1,10.11-6.22,44.5,44.5,0,0,1,13.54-2V30.81A34.69,34.69,0,0,0,1063.82,34.85Z"/><path class="cls-1" d="M466.75,245.67h19.14L442.32,136.75H423.19L379.78,245.67h19.13l10.44-26.76h47ZM415.6,202.88l17.23-44.19,17.23,44.19Z"/><polygon class="cls-1" points="543.18 245.67 563.88 245.67 531.96 200.09 561.23 167.87 540.23 167.87 511.13 199.54 511.13 136.75 493.7 136.75 493.7 245.67 511.13 245.67 511.13 223.03 520.67 212.53 543.18 245.67"/><path class="cls-1" d="M628.93,182.65a26.11,26.11,0,0,0-11.36-12.45Q610.1,166,598.9,166a37.86,37.86,0,0,0-15.25,2.8A29.89,29.89,0,0,0,573.07,176a43.2,43.2,0,0,0-6.85,9.65l15.56,5.44a18.59,18.59,0,0,1,7-7.15,19.5,19.5,0,0,1,9.65-2.34q6.06,0,9.65,2.8a16.37,16.37,0,0,1,5.29,8.09,35.15,35.15,0,0,1,1.31,6.38H595.47q-14.62,0-22.87,6.38-8.08,6.39-8.09,18.52,0,11.36,7.62,17.58,7.79,6.23,21.63,6.22,14.31,0,21-9c.35-.47.59-1,.92-1.54l.17,8.7h16.8V203Q632.66,190.9,628.93,182.65Zm-13.85,30.81a20.68,20.68,0,0,1-2.34,9.65,19.08,19.08,0,0,1-6.69,7.15,18.23,18.23,0,0,1-9.95,2.65q-6.54,0-10.27-2.49a8.43,8.43,0,0,1-3.58-7.16,9.24,9.24,0,0,1,4-8.09q4.2-3,14.63-3H615.2l0,1.25Z"/><path class="cls-1" d="M702.72,136.75v42.66a28.91,28.91,0,0,0-7.78-8.27,27.66,27.66,0,0,0-16.8-5.14,33.35,33.35,0,0,0-18.52,5.14,34.29,34.29,0,0,0-12.29,14.16q-4.37,9-4.36,21.47,0,12.28,4.36,21.47a35.47,35.47,0,0,0,12.29,14.32,34.18,34.18,0,0,0,18.52,5,28.3,28.3,0,0,0,16.8-5,30.12,30.12,0,0,0,7.93-8.63l.63,11.74H720V136.75Zm-9.8,91.8a17.9,17.9,0,0,1-10.43,3.11,20.64,20.64,0,0,1-11.2-3.11,22.63,22.63,0,0,1-7.62-8.87,31.08,31.08,0,0,1,0-25.83,21.54,21.54,0,0,1,7.62-8.71A20,20,0,0,1,682.34,182a18.22,18.22,0,0,1,10.58,3.11,19.92,19.92,0,0,1,7.15,8.71,32.8,32.8,0,0,1,0,25.83A20.91,20.91,0,0,1,692.92,228.55Z"/><path class="cls-1" d="M784.69,228.4a19.6,19.6,0,0,1-11.36,3.11,23.43,23.43,0,0,1-11.36-2.8,21.36,21.36,0,0,1-7.93-8.4,25.45,25.45,0,0,1-2.57-9.34h57.81q0-14-5-24.12a36,36,0,0,0-13.23-15.4A33.6,33.6,0,0,0,772.4,166a39.38,39.38,0,0,0-20.54,5.29,37.2,37.2,0,0,0-14,14.32,42.53,42.53,0,0,0-5.14,21.16,43.67,43.67,0,0,0,5,21.16,37.21,37.21,0,0,0,13.85,14.47,39.64,39.64,0,0,0,20.23,5.13,47,47,0,0,0,15.71-2.48,34,34,0,0,0,12-7.16A40.77,40.77,0,0,0,807.72,227l-16-6.85A22.42,22.42,0,0,1,784.69,228.4Zm-24.12-44a20.55,20.55,0,0,1,11.21-3,17.87,17.87,0,0,1,10.73,3.26q4.51,3.12,6.85,9.65c.33.88.6,1.83.86,2.8H752.38a27,27,0,0,1,1.19-4A19.13,19.13,0,0,1,760.57,184.36Z"/><path class="cls-1" d="M935.69,174.72Q927.92,166,913.76,166a27,27,0,0,0-15.87,4.67c-4.34,2.93-7.68,7.26-10.07,12.94a26.48,26.48,0,0,0-5-8.89Q875.17,166,861,166a27,27,0,0,0-15.87,4.67,26.2,26.2,0,0,0-7.57,8.13l-.83-10.93H820.4v77.8h17.43V205.06q0-11.06,4.82-17t13.54-5.76a18.47,18.47,0,0,1,8.87,2,13,13,0,0,1,5.91,7.16q2.17,5,2.18,14.32v39.83h17.42V205.06q0-11.06,4.83-17t13.69-5.76a18.1,18.1,0,0,1,8.71,2,13.62,13.62,0,0,1,6.07,7.16q2.19,5,2.18,14.32v39.83h17.27v-44.5Q943.47,183.28,935.69,174.72Z"/><path class="cls-1" d="M959.08,245.67l.16-77.8h17.27l-.16,77.8Zm8.72-92.58a10.09,10.09,0,0,1-10.27-10.27,9.75,9.75,0,0,1,3-7.16,10.3,10.3,0,0,1,7.32-2.95,9.73,9.73,0,0,1,7.15,2.95,9.5,9.5,0,0,1,3.12,7.16,10,10,0,0,1-3.12,7.31A9.74,9.74,0,0,1,967.8,153.09Z"/><path class="cls-1" d="M1042.33,228.4a19.63,19.63,0,0,1-11.36,3.11,23.4,23.4,0,0,1-11.36-2.8,21.31,21.31,0,0,1-7.94-8.4,25.45,25.45,0,0,1-2.56-9.34h57.8q0-14-5-24.12a35.88,35.88,0,0,0-13.23-15.4A33.6,33.6,0,0,0,1030,166a39.35,39.35,0,0,0-20.53,5.29,37.16,37.16,0,0,0-14,14.32,42.64,42.64,0,0,0-5.13,21.16,43.55,43.55,0,0,0,5,21.16,37.11,37.11,0,0,0,13.84,14.47,39.69,39.69,0,0,0,20.23,5.13,47,47,0,0,0,15.72-2.48,34.19,34.19,0,0,0,12-7.16,41,41,0,0,0,8.24-10.89l-16-6.85A22.6,22.6,0,0,1,1042.33,228.4Zm-24.12-44a20.49,20.49,0,0,1,11.2-3,17.9,17.9,0,0,1,10.74,3.26c3,2.08,5.29,5.29,6.84,9.65a27.81,27.81,0,0,1,.87,2.8H1010a27,27,0,0,1,1.2-4A19.07,19.07,0,0,1,1018.21,184.36Z"/><path class="cls-2" d="M161.47,159.34a1.42,1.42,0,0,0,2,1.06l59-29a1.38,1.38,0,0,0,.75-.93,36.76,36.76,0,0,0,1-9.14,56.58,56.58,0,0,0-1-9.59,1.38,1.38,0,0,0-.77-1l-59-28.67a1.43,1.43,0,0,0-2,1v0a28.1,28.1,0,0,0-.49,4.32,33.83,33.83,0,0,0-.23,4.87v.07c0,.61.05,1.26.11,1.88v.13c.06.68.11,1.33.11,2a1.79,1.79,0,0,0,0,.23c.11.62.16,1.24.22,1.9v.08a20.51,20.51,0,0,0,.26,2,1.44,1.44,0,0,0,.81,1l43.63,19.45-43.65,20.27a1.42,1.42,0,0,0-.79,1,22.77,22.77,0,0,0-.5,4.14,30.1,30.1,0,0,0-.23,4.6v.06A54.49,54.49,0,0,0,161.47,159.34Z"/><path class="cls-3" d="M141.9,51.79a1.4,1.4,0,0,1,.74,1,54.64,54.64,0,0,1,.73,8.16v.07a28.73,28.73,0,0,1-.24,4.59,21.13,21.13,0,0,1-.5,4.14,1.41,1.41,0,0,1-.79,1L98.19,91.05l43.63,19.45a1.39,1.39,0,0,1,.81,1,18.24,18.24,0,0,1,.26,2v.08c.06.66.11,1.28.21,1.9a.93.93,0,0,1,0,.23c0,.64.06,1.3.11,2l0,.13c.05.62.11,1.28.11,1.88v.07a32.43,32.43,0,0,1-.24,4.87,28.12,28.12,0,0,1-.48,4.32v.05a1.43,1.43,0,0,1-.74,1,1.42,1.42,0,0,1-1.27,0l-59-28.66a1.44,1.44,0,0,1-.78-1,57.92,57.92,0,0,1-1-9.6,37.29,37.29,0,0,1,1-9.14,1.44,1.44,0,0,1,.75-.93l59-28.95A1.41,1.41,0,0,1,141.9,51.79Z"/><path class="cls-3" d="M272.29,0H31.83A31.83,31.83,0,0,0,0,31.83V180.35a31.83,31.83,0,0,0,31.83,31.82H272.29a31.82,31.82,0,0,0,31.82-31.82V31.83A31.83,31.83,0,0,0,272.29,0ZM17.68,31.83A14.14,14.14,0,0,1,31.83,17.68H272.29a14.14,14.14,0,0,1,14.14,14.15V180.35a14.14,14.14,0,0,1-14.14,14.14H31.83a14.14,14.14,0,0,1-14.15-14.14Z"/><path class="cls-2" d="M33.59,229.85a8.84,8.84,0,0,0,0,17.68H270.52a8.84,8.84,0,1,0,0-17.68Z"/></svg>